<?xml version="1.0" encoding="utf-8"?>
<!-- Generator: Adobe Illustrator 22.1.0, SVG Export Plug-In . SVG Version: 6.00 Build 0)  -->
<svg version="1.1" id="Calque_1" xmlns="http://www.w3.org/2000/svg" xmlns:xlink="http://www.w3.org/1999/xlink" x="0px" y="0px"
	 viewBox="0 0 2000 2000" style="enable-background:new 0 0 2000 2000;" xml:space="preserve">
<style type="text/css">
	.st0{fill:#FFFFFF;}
</style>
<g>
	<path class="st0" d="M1656.7,1063.1l-150.6-87l-273.9,159.2l-0.7,248.9l103.4-60.1l86.2-50.1l17.9,11.3
		c62.4,41.3,86.6,91.2,73.2,141.2c-11.3,42.1-49,84.4-113.3,121.8c-95.5,55.5-215.1,76.1-343,61.6
		c-110.9-12.5-228.1-51.3-341.2-116.6c-115.6-66.8-183.3-134.1-202.7-197.4c-20.7-67.7,13.8-130.7,104.7-183.5
		c70.4-40.9,154.2-62.6,239.7-64.4c29.6-0.6,59.4,1.2,88.9,5.4l0.3-108.4l-45.8-127.6c-113.1,4.2-227.9,24.8-336.6,61.3
		c-69.3,23.3-136.2,53-198.5,89.2c-76.3,44.3-136.2,90.9-180,139c-168.3,184.3-98,390.2,218,572.7
		c318.4,183.8,672.4,224.6,992.5,126.2c85.6-26.3,168.7-62.4,248.1-108.6c60.6-35.2,110.4-71.5,149.9-108.4
		C1980.8,1413.5,1933.7,1223,1656.7,1063.1z"/>
	<g>
		<polygon class="st0" points="1495.5,588.6 1198.2,1064.9 1197.2,1403.8 979.1,1277.8 980,939 686.4,121.5 920.6,256.8 
			1090.1,765.1 1094.2,767.5 1265.4,455.8 		"/>
	</g>
</g>
</svg>
